<?xml version="1.0" encoding="UTF-8"?>
<svg width="1179px" height="707px" viewBox="0 0 1179 707" version="1.1" xmlns="http://www.w3.org/2000/svg" xmlns:xlink="http://www.w3.org/1999/xlink">
    <!-- Generator: sketchtool 60 (101010) - https://sketch.com -->
    <title>35F24646-2CD9-4CE3-A5A5-7F6D409E5409@2x</title>
    <desc>Created with sketchtool.</desc>
    <defs>
        <rect id="path-1" x="0" y="0" width="74" height="74"></rect>
        <path d="M153.093797,151 L153.093797,-7.10542736e-14 C69.3879411,-7.10542736e-14 1.37244944,66.2596632 0.0205101947,148.502939 L-4.54747351e-13,151 L153.093797,151 L153.093797,-7.10542736e-14 L153.093797,151 Z" id="path-3"></path>
        <path d="M43.7528536,51 L43.7528536,9 C20.9239839,9 2.37430439,27.4298401 2.00559369,50.3054532 L2,51 L43.7528536,51 L43.7528536,9 L43.7528536,51 Z" id="path-5"></path>
    </defs>
    <g id="Manifesto" stroke="none" stroke-width="1" fill="none" fill-rule="evenodd">
        <g transform="translate(-119.000000, -2544.000000)" id="Foot">
            <g transform="translate(0.000000, 1950.000000)">
                <g id="FOOTER">
                    <g id="img_startup_patterns" transform="translate(119.000000, 594.000000)">
                        <g id="img_blue_circle" transform="translate(0.000000, 342.000000)">
                            <mask id="mask-2" fill="white">
                                <use xlink:href="#path-1"></use>
                            </mask>
                            <use id="Mask" fill="#2BB7F4" xlink:href="#path-1"></use>
                            <g id="Group-11" mask="url(#mask-2)" stroke-linecap="square">
                                <g transform="translate(69.668370, 40.764137) rotate(-45.000000) translate(-69.668370, -40.764137) translate(-23.331630, -23.735863)" id="Group-8">
                                    <g transform="translate(0.408381, 0.168464)">
                                        <path d="M160.068456,64.0256446 L1.089272,64.0256446 M166.637843,79.8827875 L1.089272,79.8827875 M184.37519,95.7399304 L1.089272,95.7399304 M184.37519,111.597073 L1.089272,111.597073 M184.37519,127.454216 L1.089272,127.454216 M160.068456,16.4542161 L1.089272,16.4542161 M160.068456,0.597073209 L1.089272,0.597073209 M166.637843,32.3113589 L1.089272,32.3113589 M184.37519,48.1685018 L1.089272,48.1685018" id="Combined-Shape" stroke="#2A9DCF" stroke-width="4.00000006"></path>
                                    </g>
                                </g>
                            </g>
                        </g>
                        <g id="img_orange_lines" transform="translate(172.000000, 631.500000) scale(-1, 1) translate(-172.000000, -631.500000) translate(95.000000, 556.000000)">
                            <mask id="mask-4" fill="white">
                                <use xlink:href="#path-3"></use>
                            </mask>
                            <use id="Path" fill="#FFBB8E" xlink:href="#path-3"></use>
                            <path d="M168.56653,143.186141 L168.56653,153.911262 L-4.51859005,153.911262 L-4.51859005,143.186141 L168.56653,143.186141 Z M168.56653,122.595232 L168.56653,133.320352 L-4.51859005,133.320352 L-4.51859005,122.595232 L168.56653,122.595232 Z M168.56653,102.984842 L168.56653,113.709963 L-4.51859005,113.709963 L-4.51859005,102.984842 L168.56653,102.984842 Z M168.56653,81.4134138 L168.56653,92.1385343 L-4.51769597,92.1385343 L-4.51769597,81.4134138 L168.56653,81.4134138 Z M168.56653,60.8225047 L168.56653,71.5476252 L-4.51824103,71.5476252 L-4.51824103,60.8225047 L168.56653,60.8225047 Z M168.56653,41.2121151 L168.56653,51.9372356 L-4.51859005,51.9372356 L-4.51859005,41.2121151 L168.56653,41.2121151 Z M168.56653,20.621206 L168.56653,31.3463265 L-4.51859005,31.3463265 L-4.51859005,20.621206 L168.56653,20.621206 Z M168.56653,0.0302968715 L168.56653,10.7554174 L-4.51859005,10.7554174 L-4.51859005,0.0302968715 L168.56653,0.0302968715 Z M168.56653,-20.5606122 L168.56653,-0.0302968715 L-4.51824103,-0.0302968715 L-4.51824103,-20.5606122 L168.56653,-20.5606122 Z M168.56653,-31.3463265 L168.56653,-20.621206 L-4.51824103,-20.621206 L-4.51824103,-31.3463265 L168.56653,-31.3463265 Z" id="Combined-Shape" fill="#FFDEAF" fill-rule="nonzero" mask="url(#mask-4)"></path>
                        </g>
                        <path d="M1128,405 L1128,405 L1128,405 L1128,455 L1078,455 C1078,427.385763 1100.38576,405 1128,405 Z" id="img_blue_small" fill="#2BB7F4" transform="translate(1103.000000, 430.000000) rotate(-270.000000) translate(-1103.000000, -430.000000) "></path>
                        <g id="img_green_top" transform="translate(72.000000, 152.000000)">
                            <g id="Combined-Shape">
                                <mask id="mask-6" fill="white">
                                    <use xlink:href="#path-5"></use>
                                </mask>
                                <use id="Path" fill="#46CB8B" xlink:href="#path-5"></use>
                                <path d="M47.9661738,48.8621817 L47.9661738,51.7741819 L0.774173574,51.7741819 L0.774173574,48.8621817 L47.9661738,48.8621817 Z M47.9661738,43.134909 L47.9661738,46.0469092 L0.774173574,46.0469092 L0.774173574,43.134909 L47.9661738,43.134909 Z M47.9661738,37.6803635 L47.9661738,40.5923638 L0.774173574,40.5923638 L0.774173574,37.6803635 L47.9661738,37.6803635 Z M47.9661738,31.6803635 L47.9661738,34.5923638 L0.774417414,34.5923638 L0.774417414,31.6803635 L47.9661738,31.6803635 Z M47.9661738,25.9530908 L47.9661738,28.865091 L0.774268762,28.865091 L0.774268762,25.9530908 L47.9661738,25.9530908 Z M47.9661738,20.4985453 L47.9661738,23.4105456 L0.774173574,23.4105456 L0.774173574,20.4985453 L47.9661738,20.4985453 Z M47.9661738,14.7712726 L47.9661738,17.6832729 L0.774173574,17.6832729 L0.774173574,14.7712726 L47.9661738,14.7712726 Z M47.9661738,9.04399988 L47.9661738,11.9560001 L0.774173574,11.9560001 L0.774173574,9.04399988 L47.9661738,9.04399988 Z M47.9661738,3.31672715 L47.9661738,8.95600012 L0.774268762,8.95600012 L0.774268762,3.31672715 L47.9661738,3.31672715 Z M47.9661738,0.316727149 L47.9661738,3.2287274 L0.774268762,3.2287274 L0.774268762,0.316727149 L47.9661738,0.316727149 Z" fill="#299E65" fill-rule="nonzero" mask="url(#mask-6)"></path>
                            </g>
                        </g>
                        <g id="img_purple_dots" transform="translate(1054.000000, 0.000000)">
                            <rect id="Mask-Copy" fill="#5352FF" x="2.84217094e-14" y="3.55271368e-15" width="125.000002" height="45.6827593"></rect>
                            <g id="Group-21" transform="translate(16.820513, 10.151724)" stroke="#CDCDF8" stroke-dasharray="0,12" stroke-linecap="round" stroke-linejoin="round" stroke-width="5">
                                <line x1="0.174195906" y1="25.0698069" x2="99.5843915" y2="25.0698069" id="Line-9-Copy"></line>
                                <line x1="0.174195906" y1="13.0146343" x2="99.5843915" y2="13.0146343" id="Line-9-Copy-2"></line>
                                <line x1="0.174195906" y1="0.324978979" x2="99.5843915" y2="0.324978979" id="Line-9-Copy-3"></line>
                            </g>
                        </g>
                    </g>
                </g>
            </g>
        </g>
    </g>
</svg>