<svg xmlns="http://www.w3.org/2000/svg" width="26" height="26" viewBox="0 0 26 26">
    <g fill="none" fill-rule="evenodd">
        <path fill="#1769FF" d="M0 13C0 5.82 5.82 0 13 0s13 5.82 13 13-5.82 13-13 13S0 20.18 0 13z"/>
        <path fill="#FFF" d="M14.927 10.113H18.6V9.06h-3.673v1.052zm.87 2.295c-.234.238-.381.561-.442.968h2.856c-.03-.434-.178-.762-.44-.988-.266-.225-.593-.337-.985-.337-.424 0-.755.12-.989.357zm2.479-1.412a2.55 2.55 0 0 1 1.094.925c.262.372.43.803.506 1.293.045.286.063.7.056 1.24h-4.617c.027.627.246 1.067.663 1.319.253.157.557.236.914.236.376 0 .684-.096.92-.287.129-.104.243-.247.34-.43h1.693c-.045.37-.25.747-.614 1.13-.568.607-1.363.911-2.384.911a3.476 3.476 0 0 1-2.232-.769c-.646-.512-.968-1.347-.968-2.502 0-1.083.291-1.914.873-2.493.583-.576 1.337-.867 2.265-.867.552 0 1.049.099 1.49.294zM7.775 13.399v2.254h2.08c.372 0 .662-.05.869-.149.376-.185.563-.535.563-1.055 0-.44-.18-.742-.545-.907-.204-.092-.49-.14-.857-.143h-2.11zm0-3.264V12h2.084c.37 0 .673-.07.906-.21.232-.14.348-.388.348-.742 0-.395-.153-.654-.46-.782-.265-.087-.603-.131-1.013-.131H7.775zm4.653-.567c.262.36.393.789.393 1.29 0 .515-.13.931-.396 1.245-.148.175-.366.336-.654.48.437.158.767.407.99.747.223.34.334.753.334 1.239 0 .5-.127.95-.382 1.348a2.35 2.35 0 0 1-1.574 1.09 6.024 6.024 0 0 1-1.211.113H6.067V8.667h4.14c1.046.015 1.785.315 2.221.9z"/>
    </g>
</svg>
