<svg xmlns="http://www.w3.org/2000/svg" width="26" height="26" viewBox="0 0 26 26">
    <g fill="none" fill-rule="evenodd">
        <path fill="#F26798" d="M0 13C0 5.82 5.82 0 13 0s13 5.82 13 13-5.82 13-13 13S0 20.18 0 13z"/>
        <path fill="#FFF" d="M13 6.067a6.997 6.997 0 0 1 2.699.543 6.958 6.958 0 0 1 4.093 4.986 6.929 6.929 0 0 1-1.044 5.265 6.981 6.981 0 0 1-1.871 1.87c-.37.25-.767.464-1.178.638a6.963 6.963 0 0 1-5.398 0 7.009 7.009 0 0 1-1.178-.638 6.987 6.987 0 0 1-2.51-3.046 6.9 6.9 0 0 1-.406-4.089A6.884 6.884 0 0 1 7.25 9.12a6.99 6.99 0 0 1 1.872-1.87 6.866 6.866 0 0 1 2.481-1.043c.456-.092.926-.14 1.396-.14zm1.047 7.877l-.04.013c-3.493 1.216-4.634 3.667-4.647 3.694a5.914 5.914 0 0 0 5.951.783 24.586 24.586 0 0 0-1.264-4.49zm1.109-.273a25.563 25.563 0 0 1 1.152 4.223 5.914 5.914 0 0 0 2.538-3.967 8.602 8.602 0 0 0-3.69-.256zm-1.993-1.711c-3.05.911-5.975.846-6.08.842-.001.063-.004.125-.004.188 0 1.52.573 2.904 1.517 3.951-.002-.003 1.618-2.874 4.813-3.905a5.78 5.78 0 0 1 .234-.071c-.149-.336-.31-.673-.48-1.005zm4.41-2.726c-.012.016-.962 1.386-3.3 2.34a18.645 18.645 0 0 1 .522 1.164c2.034-.256 4.038.174 4.124.191a5.877 5.877 0 0 0-1.347-3.695zm-7.1-1.592a5.922 5.922 0 0 0-3.267 4.13c.156 0 2.623.032 5.466-.722a35.6 35.6 0 0 0-2.199-3.408zM13 7.078c-.481 0-.948.058-1.396.166.09.119 1.201 1.592 2.214 3.449 2.234-.837 3.077-2.119 3.092-2.14A5.897 5.897 0 0 0 13 7.078z"/>
    </g>
</svg>
