<svg xmlns="http://www.w3.org/2000/svg" width="20" height="19" viewBox="0 0 20 19">
    <g fill="none" fill-rule="evenodd">
        <path d="M-1-3h24v24H-1z"/>
        <path fill="#4544e6" d="M17.218 10.06a3.999 3.999 0 0 1 0 5.658 3.999 3.999 0 0 1-5.657 0l-8.84-8.84a2.5 2.5 0 0 1 3.536-3.535l7.425 7.425a1.003 1.003 0 0 1 0 1.414 1.003 1.003 0 0 1-1.414 0L5.55 5.464 4.49 6.525l6.717 6.718a2.5 2.5 0 0 0 3.536-3.536L7.318 2.282a3.999 3.999 0 0 0-5.657 0 3.999 3.999 0 0 0 0 5.657l8.839 8.84a5.497 5.497 0 0 0 7.778 0 5.497 5.497 0 0 0 0-7.779L10.146.868l-1.06 1.06 8.132 8.133z"/>
    </g>
</svg>
