<?xml version="1.0" encoding="UTF-8"?>
<svg width="672px" height="560px" viewBox="0 0 672 560" version="1.1" xmlns="http://www.w3.org/2000/svg" xmlns:xlink="http://www.w3.org/1999/xlink">
    <!-- Generator: Sketch 61 (89581) - https://sketch.com -->
    <title>img_hero_homepage</title>
    <desc>Created with Sketch.</desc>
    <defs>
        <rect id="path-1" x="0" y="0" width="91" height="91"></rect>
        <circle id="path-3" cx="91.3942118" cy="91.3942118" r="91.3942118"></circle>
        <path d="M86.9652247,-7.10542736e-14 C39.415953,-7.10542736e-14 0.779622538,37.6758568 0.0116508555,84.4401434 L-4.54747351e-13,85.8599955 L86.9652247,85.8599955 L86.9652247,-7.10542736e-14 Z" id="path-5"></path>
        <path d="M50.1034229,-7.10542736e-14 C22.7087801,-7.10542736e-14 0.449165259,21.8946494 0.00671242718,49.070877 L-4.8316906e-13,49.8959986 L50.1034229,49.8959986 L50.1034229,-7.10542736e-14 Z" id="path-7"></path>
        <path d="M496,443 C564.080319,443 619.270322,499.158516 619.270322,567.199993 L619.270322,567.199993 L496,567.199993 Z" id="path-9"></path>
        <circle id="path-11" cx="84" cy="84" r="84"></circle>
        <circle id="path-13" cx="84" cy="84" r="84"></circle>
        <circle id="path-15" cx="54.7451985" cy="54.7451985" r="54.7451985"></circle>
        <rect id="path-17" x="0" y="0.873684211" width="143" height="97"></rect>
        <rect id="path-19" x="0" y="-54.1263158" width="191" height="72"></rect>
        <polygon id="path-21" points="119.489437 0.0305548527 238.948319 119.489437 119.489437 238.948319 0.0305548527 119.489437"></polygon>
        <path d="M123.270322,-7.10542736e-14 C55.8708064,-7.10542736e-14 1.1050891,55.0409611 0.0165147013,122.162358 L-4.8316906e-13,124.199993 L123.270322,124.199993 L123.270322,-7.10542736e-14 Z" id="path-23"></path>
        <polygon id="path-25" points="88.7129338 141 172 141 88.7129338 0 0 141"></polygon>
        <polygon id="path-27" points="0.445777682 -4.00342158e-13 49.1709587 92.1715749 130.060988 92.1715749 130.060988 16.2554417"></polygon>
        <polygon id="path-29" points="107.341746 0.1315008 13.745531 0.1315008 0.0899999893 26.448782 118.736067 26.448782"></polygon>
        <polygon id="path-31" points="0 89.8712256 0 25.9007518 50.3122903 0 96.0276846 39.1030195 141.743079 0 195 25.9007518 195 93.321492 96.0276846 185"></polygon>
    </defs>
    <g id="Homepage" stroke="none" stroke-width="1" fill="none" fill-rule="evenodd">
        <g transform="translate(-76.000000, -189.000000)" id="img_hero_homepage">
            <g transform="translate(79.000000, 156.000000)">
                <g id="Oval" transform="translate(594.500000, 171.500000) scale(-1, 1) translate(-594.500000, -171.500000) translate(549.000000, 126.000000)">
                    <mask id="mask-2" fill="white">
                        <use xlink:href="#path-1"></use>
                    </mask>
                    <g id="Mask"></g>
                    <g id="Group-14" mask="url(#mask-2)">
                        <mask id="mask-4" fill="white">
                            <use xlink:href="#path-3"></use>
                        </mask>
                        <use id="Mask" fill="#FFEDE1" xlink:href="#path-3"></use>
                        <g mask="url(#mask-4)" id="Line-9" stroke="#FFBB8E" stroke-dasharray="0,16.19999903440475" stroke-linecap="round" stroke-linejoin="round" stroke-width="5.39999954">
                            <g transform="translate(49.614001, 35.884484)">
                                <line x1="0.600654025" y1="0.334369068" x2="22.1957371" y2="0.334369068"></line>
                                <line x1="0.600654025" y1="19.918843" x2="22.1957371" y2="19.918843"></line>
                                <line x1="0.600654025" y1="39.503317" x2="22.1957371" y2="39.503317"></line>
                                <line x1="0.600654025" y1="59.0877909" x2="22.1957371" y2="59.0877909"></line>
                                <line x1="0.600654025" y1="78.6722649" x2="22.1957371" y2="78.6722649"></line>
                            </g>
                        </g>
                    </g>
                </g>
                <g id="Group-20-Copy" transform="translate(267.000000, 61.000000)">
                    <g id="Combined-Shape">
                        <mask id="mask-6" fill="white">
                            <use xlink:href="#path-5"></use>
                        </mask>
                        <use id="Path" fill="#FFBB8E" xlink:href="#path-5"></use>
                        <path d="M92.7083283,72.7579832 L0.479418904,72.7579832 M92.7083283,84.4661644 L0.479418904,84.4661644 M92.7083283,37.6334396 L0.479617166,37.6334396 M92.7083283,49.3416208 L0.479926789,49.3416208 M92.7083283,61.6073344 L0.479418904,61.6073344 M92.7083283,26.4827908 L0.479418904,26.4827908 M92.7083283,-8.64175279 L0.479617166,-8.64175279 M92.7083283,-14.7746096 L0.479617166,-14.7746096 M92.7083283,-3.06642841 L0.479926789,-3.06642841 M92.7083283,3.06642841 L0.479418904,3.06642841 M92.7083283,14.7746096 L0.479418904,14.7746096" stroke="#FFDEAF" stroke-width="6.08114344" stroke-linecap="square" mask="url(#mask-6)"></path>
                    </g>
                </g>
                <polygon id="Rectangle-Copy-8" fill="#FFE1E2" transform="translate(354.081773, 492.298793) scale(1, -1) rotate(-120.000000) translate(-354.081773, -492.298793) " points="400.163546 510.549382 370.078376 493.179701 392.030081 455.158232 353.650897 433 308 512.069673 376.464354 551.597586"></polygon>
                <g id="Lines-dot" transform="translate(557.000000, 66.000000)" stroke="#CDCDF8" stroke-dasharray="0,21.59999942779541" stroke-linecap="round" stroke-linejoin="round" stroke-width="4.31999995">
                    <line x1="-3.83693077e-13" y1="29.1599997" x2="111.657529" y2="29.1599997" id="Line-9-Copy"></line>
                    <line x1="-3.83693077e-13" y1="0.359999996" x2="111.657529" y2="0.359999996" id="Line-9-Copy-3"></line>
                    <line x1="-3.83693077e-13" y1="14.7599998" x2="111.657529" y2="14.7599998" id="Line-9-Copy-4"></line>
                </g>
                <g id="Group-20" transform="translate(575.000000, 332.000000)">
                    <g id="Combined-Shape">
                        <mask id="mask-8" fill="white">
                            <use xlink:href="#path-7"></use>
                        </mask>
                        <use id="Path" fill="#46CB8B" xlink:href="#path-7"></use>
                        <path d="M53.4122069,42.2819988 L0.276208429,42.2819988 M53.4122069,49.0859986 L0.276208429,49.0859986 M53.4122069,21.8699994 L0.276322654,21.8699994 M53.4122069,28.6739992 L0.276501037,28.6739992 M53.4122069,35.801999 L0.276208429,35.801999 M53.4122069,15.3899996 L0.276208429,15.3899996 M53.4122069,-5.02199986 L0.276322654,-5.02199986 M53.4122069,-8.58599975 L0.276322654,-8.58599975 M53.4122069,-1.78199995 L0.276501037,-1.78199995 M53.4122069,1.78199995 L0.276208429,1.78199995 M53.4122069,8.58599975 L0.276208429,8.58599975" stroke="#299E65" stroke-width="3.5279999" stroke-linecap="square" mask="url(#mask-8)"></path>
                    </g>
                </g>
                <polygon id="Rectangle-Copy-3" fill="#FFE1E2" transform="translate(165.977177, 293.924402) scale(1, -1) translate(-165.977177, -293.924402) " points="248.471083 216.348804 163.108879 216.348804 83.4832702 371.5 248.471083 370.412184"></polygon>
                <path d="M256.987813,340 L203.85035,340 L203.85035,340 L146.746003,448.437205 L356.987813,447.349389 L356.987813,440 C356.987813,384.771525 312.216288,340 256.987813,340 Z" id="Rectangle-Copy-5" fill="#BD98FF" transform="translate(251.866908, 394.218603) scale(1, -1) translate(-251.866908, -394.218603) "></path>
                <mask id="mask-10" fill="white">
                    <use xlink:href="#path-9"></use>
                </mask>
                <use id="Mask" fill="#FFE1E2" transform="translate(557.633174, 505.099996) scale(-1, -1) translate(-557.633174, -505.099996) " xlink:href="#path-9"></use>
                <polygon id="Rectangle-Copy-7" fill="#BD98FF" transform="translate(445.617446, 113.615459) scale(1, -1) rotate(-137.000000) translate(-445.617446, -113.615459) " points="354.709621 88.160646 506.705226 43.8793859 536.52527 75.857468 417.146042 183.351533"></polygon>
                <polygon id="Rectangle-Copy-8" fill="#2BB7F4" transform="translate(289.512241, 181.715661) scale(-1, -1) translate(-289.512241, -181.715661) " points="352 145.199744 227.024481 146.663414 306.315134 218.231579"></polygon>
                <polygon id="Rectangle-Copy-6" fill="#3A19C1" transform="translate(359.975578, 183.913030) scale(1, -1) translate(-359.975578, -183.913030) " points="448.24181 145.199744 351.087912 149.973307 271.709347 221.82606 448.24181 222.626316"></polygon>
                <g id="Group-2" transform="translate(105.000000, 79.000000)">
                    <g id="Path-7">
                        <mask id="mask-12" fill="white">
                            <use xlink:href="#path-11"></use>
                        </mask>
                        <use id="Mask" fill="#2BB7F4" xlink:href="#path-11"></use>
                        <mask id="mask-14" fill="white">
                            <use xlink:href="#path-13"></use>
                        </mask>
                        <use id="Mask-Copy" fill="#2BB7F4" xlink:href="#path-13"></use>
                        <polygon fill="#353BCA" mask="url(#mask-14)" points="84.7528809 79.2676056 84.7528809 194.00957 198.653009 157.567222 198.653009 79.2676056"></polygon>
                        <polygon id="Path-7-Copy" fill="#6542F4" mask="url(#mask-14)" points="84.7528809 -6.7759283 84.7528809 83.6773367 198.653009 83.6773367 198.653009 -6.7759283"></polygon>
                        <path d="M68.7599186,-5.91549296 L76.6081201,-3.33418694 L76.6081201,138.314981 L68.7599186,138.314981 L68.7599186,-5.91549296 Z M53.3466556,-5.91549296 L61.194857,-3.33418694 L61.194857,138.314981 L53.3466556,138.314981 L53.3466556,-5.91549296 Z M37.9333925,-5.91549296 L45.781594,-3.33418694 L45.781594,138.314981 L37.9333925,138.314981 L37.9333925,-5.91549296 Z M22.5201295,-5.91549296 L30.368331,-3.33418694 L30.368331,138.314981 L22.5201295,138.314981 L22.5201295,-5.91549296 Z M7.10686644,-5.91549296 L14.9550679,-3.33418694 L14.9550679,138.314981 L7.10686644,138.314981 L7.10686644,-5.91549296 Z M-8.30639659,-5.91549296 L-0.458195126,-3.33418694 L-0.458195126,138.314981 L-8.30639659,138.314981 L-8.30639659,-5.91549296 Z" id="Combined-Shape" fill="#353BCA" mask="url(#mask-14)"></path>
                        <polygon id="Path-7-Copy-2" fill="#13154F" mask="url(#mask-14)" points="166.709347 137.767909 8.38924456 137.767909 43.6670935 182.950064 128.742638 182.950064"></polygon>
                    </g>
                    <g id="Mask-Copy-2-+-Combined-Shape-Mask" transform="translate(30.330346, 29.254802)">
                        <mask id="mask-16" fill="white">
                            <use xlink:href="#path-15"></use>
                        </mask>
                        <use id="Mask" fill="#13154F" xlink:href="#path-15"></use>
                        <circle id="Mask-Copy-8" fill="#696EFF" mask="url(#mask-16)" cx="-5.48527529" cy="49.3674776" r="54.7451985"></circle>
                        <circle id="Mask-Copy-7" fill="#696EFF" mask="url(#mask-16)" cx="112.824584" cy="49.3674776" r="54.7451985"></circle>
                        <circle id="Mask-Copy-6" fill="#353BCA" mask="url(#mask-16)" cx="53.6696543" cy="74.9654289" r="34.524968"></circle>
                        <circle id="Mask-Copy-5" fill="#3FC57F" mask="url(#mask-16)" cx="-5.48527529" cy="109.597951" r="54.7451985"></circle>
                        <circle id="Mask-Copy-4" fill="#3FC57F" mask="url(#mask-16)" cx="112.824584" cy="109.597951" r="54.7451985"></circle>
                    </g>
                </g>
                <g id="Lines-dot" transform="translate(0.000000, 390.000000)" stroke="#CDCDF8" stroke-dasharray="0,30" stroke-linecap="round" stroke-linejoin="round" stroke-width="6">
                    <line x1="-3.83693077e-13" y1="40.5" x2="155.079903" y2="40.5" id="Line-9-Copy"></line>
                    <line x1="-3.83693077e-13" y1="0.5" x2="155.079903" y2="0.5" id="Line-9-Copy-3"></line>
                    <line x1="-3.83693077e-13" y1="20.5" x2="155.079903" y2="20.5" id="Line-9-Copy-4"></line>
                </g>
                <g id="Oval" transform="translate(357.000000, 271.126316)">
                    <mask id="mask-18" fill="white">
                        <use xlink:href="#path-17"></use>
                    </mask>
                    <use id="Mask" fill="#57D2FF" xlink:href="#path-17"></use>
                    <mask id="mask-20" fill="white">
                        <use xlink:href="#path-19"></use>
                    </mask>
                    <use id="Mask-Copy" fill="#5352FF" xlink:href="#path-19"></use>
                </g>
                <g id="Combined-Shape" transform="translate(380.000000, 320.000000)">
                    <mask id="mask-22" fill="white">
                        <use xlink:href="#path-21"></use>
                    </mask>
                    <use id="Mask" fill="#353BCA" xlink:href="#path-21"></use>
                    <polygon id="Shape-Copy-10" fill="#57D2FF" mask="url(#mask-22)" points="48.8224599 47.4165775 111.064706 -7.02941176 173.179144 44.4770053 121.03369 94.3219251"></polygon>
                    <polygon id="Shape-Copy-2" fill="#13154F" mask="url(#mask-22)" points="-22.4941176 109.914439 64.4149733 48.9502674 170.36738 48.9502674 37.7032086 172.156684"></polygon>
                    <polygon id="Shape-Copy-9" fill="#13154F" mask="url(#mask-22)" points="120.01123 119.755615 239 119.755615 120.01123 249.096791"></polygon>
                    <path d="M170.120333,118.569402 L184.68807,118.569402 L184.68807,184.69074 C184.68807,199.744068 179.103771,205.652095 165.264421,205.652095 L119.78071,205.652095 L64.2871658,145.95615 L112.598396,149.151337 C111.422424,149.346609 110.146433,139.164613 108.770423,118.605348 L119.78071,118.569402 L119.78071,-17.6005196 C119.78071,-22.5619352 123.802732,-26.5839572 128.764147,-26.5839572 C133.725563,-26.5839572 133.91336,-22.5619352 133.91336,-17.6005196 L133.91336,118.569402 L145.840772,118.569402 L145.840772,-11.677779 C145.840772,-16.1475228 149.464215,-19.770966 153.933959,-19.770966 C158.403703,-19.770966 159.470996,-16.1475228 159.470996,-11.677779 L159.470996,118.569402 L170.120333,118.569402 L170.120333,2.24250279 C170.120333,-1.78026663 173.381432,-5.04136557 177.404201,-5.04136557 C181.426971,-5.04136557 184.68807,-1.78026663 184.68807,2.24250279 L184.68807,151.508673 C184.68807,155.531443 181.426971,158.792542 177.404201,158.792542 C173.381432,158.792542 170.120333,155.531443 170.120333,151.508673 L170.120333,118.569402 Z" fill="#3FC57F" fill-rule="nonzero" mask="url(#mask-22)"></path>
                    <path d="M88.1871658,89.8365357 C107.181531,89.8365357 122.579507,105.234511 122.579507,124.228877 C122.579507,143.223243 107.181531,158.621218 88.1871658,158.621218 C69.3827438,158.621218 54.1031437,143.529662 53.7994321,124.797617 L53.7948245,124.228877 L69.9228226,124.228877 C69.9228226,134.315995 78.1000475,142.49322 88.1871658,142.49322 C98.274284,142.49322 106.451509,134.315995 106.451509,124.228877 C106.451509,114.141759 98.274284,105.964534 88.1871658,105.964534 C81.1188835,105.964534 74.7886027,110.013042 71.7549577,116.242066 L71.5956092,116.577839 L56.9560106,109.810678 C62.5375602,97.735948 74.6471896,89.8365357 88.1871658,89.8365357 Z" id="Oval-2-Copy" fill="#6542F4" fill-rule="nonzero" mask="url(#mask-22)"></path>
                </g>
                <g id="Group-21" transform="translate(374.000000, 234.126316)" stroke="#CDCDF8" stroke-dasharray="0,30" stroke-linecap="round" stroke-linejoin="round" stroke-width="6">
                    <line x1="0.271745609" y1="39.5121951" x2="155.351648" y2="39.5121951" id="Line-9-Copy"></line>
                    <line x1="0.271745609" y1="20.5121951" x2="155.351648" y2="20.5121951" id="Line-9-Copy-2"></line>
                    <line x1="0.271745609" y1="0.512195122" x2="155.351648" y2="0.512195122" id="Line-9-Copy-3"></line>
                </g>
                <g id="Group-20" transform="translate(234.000000, 217.000000)">
                    <g id="Combined-Shape">
                        <mask id="mask-24" fill="white">
                            <use xlink:href="#path-23"></use>
                        </mask>
                        <use id="Path" fill="#46CB8B" xlink:href="#path-23"></use>
                        <path d="M131.410981,104.399994 L0.679560399,104.399994 M131.410981,121.199993 L0.679560399,121.199993 M131.410981,53.9999968 L0.679841429,53.9999968 M131.410981,70.7999958 L0.680280309,70.7999958 M131.410981,88.3999947 L0.679560399,88.3999947 M131.410981,37.9999977 L0.679560399,37.9999977 M131.410981,-12.3999993 L0.679841429,-12.3999993 M131.410981,-21.1999987 L0.679841429,-21.1999987 M131.410981,-4.39999974 L0.680280309,-4.39999974 M131.410981,4.39999974 L0.679560399,4.39999974 M131.410981,21.1999987 L0.679560399,21.1999987" stroke="#299E65" stroke-width="5.59999967" stroke-linecap="square" mask="url(#mask-24)"></path>
                    </g>
                </g>
                <rect id="Rectangle" fill="#3FC57F" x="449" y="109" width="99" height="109"></rect>
                <g id="Group-5" transform="translate(126.000000, 383.000000)">
                    <g id="Path-7-Copy-9">
                        <mask id="mask-26" fill="white">
                            <use xlink:href="#path-25"></use>
                        </mask>
                        <use id="Mask-Copy" fill="#3FC57F" xlink:href="#path-25"></use>
                        <g id="Combined-Shape" mask="url(#mask-26)">
                            <g transform="translate(70.440589, 51.175416)">
                                <mask id="mask-28" fill="white">
                                    <use xlink:href="#path-27"></use>
                                </mask>
                                <use id="Mask" stroke="none" fill="#696EFF" fill-rule="evenodd" xlink:href="#path-27"></use>
                            </g>
                        </g>
                        <polygon id="Path-7-Copy-11" fill="#6542F4" mask="url(#mask-26)" points="98.1177708 -14.4430218 63.6635121 37.4880757 79.0502897 66.5182502 153.117596 65.9280018"></polygon>
                        <g id="Combined-Shape" mask="url(#mask-26)">
                            <g transform="translate(-5.606730, 119.154930)">
                                <mask id="mask-30" fill="white">
                                    <use xlink:href="#path-29"></use>
                                </mask>
                                <use id="Mask" stroke="none" fill="#13154F" fill-rule="evenodd" xlink:href="#path-29"></use>
                                <path d="M110.735919,-99.2957746 L117.334641,-97.1293214 L117.334641,21.7548015 L110.735919,21.7548015 L110.735919,-99.2957746 Z M97.7765372,-99.2957746 L104.375259,-97.1293214 L104.375259,21.7548015 L97.7765372,21.7548015 L97.7765372,-99.2957746 Z M84.8171558,-99.2957746 L91.4158777,-97.1293214 L91.4158777,21.7548015 L84.8171558,21.7548015 L84.8171558,-99.2957746 Z M71.8577744,-99.2957746 L78.4564963,-97.1293214 L78.4564963,21.7548015 L71.8577744,21.7548015 L71.8577744,-99.2957746 Z M58.898393,-99.2957746 L65.4971149,-97.1293214 L65.4971149,21.7548015 L58.898393,21.7548015 L58.898393,-99.2957746 Z M45.9390116,-99.2957746 L52.5377335,-97.1293214 L52.5377335,21.7548015 L45.9390116,21.7548015 L45.9390116,-99.2957746 Z M32.9169295,-99.2957746 L39.5156514,-97.1293214 L39.5156514,21.7548015 L32.9169295,21.7548015 L32.9169295,-99.2957746 Z M19.8948475,-99.2957746 L26.4935694,-97.1293214 L26.4935694,21.7548015 L19.8948475,21.7548015 L19.8948475,-99.2957746 Z" id="Combined-Shape" stroke="none" fill="#353BCA" fill-rule="evenodd" mask="url(#mask-30)"></path>
                            </g>
                        </g>
                    </g>
                    <g id="Group" transform="translate(38.523659, 58.133163)">
                        <path d="M5.14084006,25.8307716 C18.6808739,37.7270924 34.3584971,43.9629868 50.1103155,43.9629868 C65.5218546,43.9629868 80.1693667,37.9641935 94.1648074,25.8292374 C79.0605552,10.6950453 65.141136,3.59999936 50.1103155,3.59999936 C34.7392016,3.59999936 19.6795643,11.0531759 5.14084006,25.8307716 Z" id="Rectangle-Copy-2" stroke="#13154F" stroke-width="7.19999871" fill="#4950FF"></path>
                        <ellipse id="Oval-Copy-9" fill="#2BB7F4" cx="49.5834331" cy="23.8312421" rx="17.7250623" ry="16.5271997"></ellipse>
                        <ellipse id="Oval-Copy-10" fill="#353BCA" cx="49.5637115" cy="23.8220392" rx="11.1025116" ry="10.352202"></ellipse>
                    </g>
                </g>
                <g id="Shape-Copy-7" transform="translate(353.000000, 33.000000)">
                    <mask id="mask-32" fill="white">
                        <use xlink:href="#path-31"></use>
                    </mask>
                    <use id="Mask" fill="#4950FF" xlink:href="#path-31"></use>
                    <polygon id="Shape-Copy-6" fill="#13154F" mask="url(#mask-32)" points="11 113.563618 100.955566 35 186 113.786466 90.5603368 200"></polygon>
                    <path d="M147.968113,-18 L161,-13.704698 L161,222 L147.968113,222 L147.968113,-18 Z M122.37449,-18 L135.406377,-13.704698 L135.406377,222 L122.37449,222 L122.37449,-18 Z M96.7808676,-18 L109.812755,-13.704698 L109.812755,222 L96.7808676,222 L96.7808676,-18 Z M71.1872451,-18 L84.2191324,-13.704698 L84.2191324,222 L71.1872451,222 L71.1872451,-18 Z M45.5936225,-18 L58.6255098,-13.704698 L58.6255098,222 L45.5936225,222 L45.5936225,-18 Z M20,-18 L33.0318873,-13.704698 L33.0318873,222 L20,222 L20,-18 Z" id="Combined-Shape" fill="#3FC57F" mask="url(#mask-32)"></path>
                    <polygon id="Shape-Copy-8" fill="#2BB7F4" mask="url(#mask-32)" points="61 156 -56 47.3414634 -3.54608939 21 61 73.847561"></polygon>
                    <polygon id="Shape-Copy-2" fill="#6542F4" mask="url(#mask-32)" points="90 33.8095238 178.026949 -40 260 36.6567173 185.553417 115"></polygon>
                </g>
                <polygon id="Rectangle-Copy-9" fill="#9EE5FF" transform="translate(586.944922, 311.712800) scale(-1, -1) translate(-586.944922, -311.712800) " points="625.889845 290 548 290 548 316.036808 565.089843 333.4256 625.889845 333.4256"></polygon>
                <g id="Lines-dot" transform="translate(348.000000, 558.000000)" stroke="#CDCDF8" stroke-dasharray="0,24.00000035762787" stroke-linecap="round" stroke-linejoin="round" stroke-width="4.80000007">
                    <line x1="-3.83693077e-13" y1="32.4000005" x2="124.063924" y2="32.4000005" id="Line-9-Copy"></line>
                    <line x1="-3.83693077e-13" y1="0.400000006" x2="124.063924" y2="0.400000006" id="Line-9-Copy-3"></line>
                    <line x1="-3.83693077e-13" y1="16.4000002" x2="124.063924" y2="16.4000002" id="Line-9-Copy-4"></line>
                </g>
            </g>
        </g>
    </g>
</svg>