<?xml version="1.0" encoding="UTF-8"?>
<svg width="87px" height="83px" viewBox="0 0 87 83" version="1.1" xmlns="http://www.w3.org/2000/svg" xmlns:xlink="http://www.w3.org/1999/xlink">
    <!-- Generator: Sketch 61 (89581) - https://sketch.com -->
    <title>img_collaborate_color</title>
    <desc>Created with Sketch.</desc>
    <defs>
        <polygon id="path-1" points="0 40.3206039 0 11.6203373 22.4470218 0 42.8431208 17.5435169 63.2392198 0 87 11.6203373 87 41.8685613 42.8431208 83"></polygon>
        <polygon id="path-3" points="0 40.3206039 0 11.6203373 22.4470218 0 42.8431208 17.5435169 63.2392198 0 87 11.6203373 87 41.8685613 42.8431208 83"></polygon>
    </defs>
    <g id="img_collaborate_color" stroke="none" stroke-width="1" fill="none" fill-rule="evenodd">
        <g id="img_collaborate_teal" style="mix-blend-mode: luminosity;">
            <mask id="mask-2" fill="white">
                <use xlink:href="#path-1"></use>
            </mask>
            <use id="Mask" fill="#4950FF" xlink:href="#path-1"></use>
            <polygon id="Shape-Copy-6" fill="#13154F" mask="url(#mask-2)" points="4.90769231 50.9501639 45.041714 15.7027027 82.9846154 51.0501442 40.4038426 89.7297297"></polygon>
            <path d="M66.0165426,-8.07567568 L71.8307692,-6.14859423 L71.8307692,99.6 L66.0165426,99.6 L66.0165426,-8.07567568 Z M54.5978495,-8.07567568 L60.4120761,-6.14859423 L60.4120761,99.6 L54.5978495,99.6 L54.5978495,-8.07567568 Z M43.1791563,-8.07567568 L48.993383,-6.14859423 L48.993383,99.6 L43.1791563,99.6 L43.1791563,-8.07567568 Z M31.7604632,-8.07567568 L37.5746898,-6.14859423 L37.5746898,99.6 L31.7604632,99.6 L31.7604632,-8.07567568 Z M20.3417701,-8.07567568 L26.1559967,-6.14859423 L26.1559967,99.6 L20.3417701,99.6 L20.3417701,-8.07567568 Z M8.92307692,-8.07567568 L14.7373035,-6.14859423 L14.7373035,99.6 L8.92307692,99.6 L8.92307692,-8.07567568 Z" id="Combined-Shape" fill="#3FC57F" mask="url(#mask-2)"></path>
            <polygon id="Shape-Copy-8" fill="#2BB7F4" mask="url(#mask-2)" points="27.2153846 69.9891892 -24.9846154 21.2396836 -1.58210142 9.42162162 27.2153846 33.1316084"></polygon>
            <polygon id="Shape-Copy-2" fill="#6542F4" mask="url(#mask-2)" points="40.1538462 15.1685972 79.427408 -17.9459459 116 16.4459867 82.7853705 51.5945946"></polygon>
        </g>
        <g>
            <mask id="mask-4" fill="white">
                <use xlink:href="#path-3"></use>
            </mask>
            <use id="Mask" fill="#4950FF" xlink:href="#path-3"></use>
            <polygon id="Shape-Copy-6" fill="#13154F" mask="url(#mask-4)" points="4.90769231 50.9501639 45.041714 15.7027027 82.9846154 51.0501442 40.4038426 89.7297297"></polygon>
            <path d="M66.0165426,-8.07567568 L71.8307692,-6.14859423 L71.8307692,99.6 L66.0165426,99.6 L66.0165426,-8.07567568 Z M54.5978495,-8.07567568 L60.4120761,-6.14859423 L60.4120761,99.6 L54.5978495,99.6 L54.5978495,-8.07567568 Z M43.1791563,-8.07567568 L48.993383,-6.14859423 L48.993383,99.6 L43.1791563,99.6 L43.1791563,-8.07567568 Z M31.7604632,-8.07567568 L37.5746898,-6.14859423 L37.5746898,99.6 L31.7604632,99.6 L31.7604632,-8.07567568 Z M20.3417701,-8.07567568 L26.1559967,-6.14859423 L26.1559967,99.6 L20.3417701,99.6 L20.3417701,-8.07567568 Z M8.92307692,-8.07567568 L14.7373035,-6.14859423 L14.7373035,99.6 L8.92307692,99.6 L8.92307692,-8.07567568 Z" id="Combined-Shape" fill="#3FC57F" mask="url(#mask-4)"></path>
            <polygon id="Shape-Copy-8" fill="#2BB7F4" mask="url(#mask-4)" points="27.2153846 69.9891892 -24.9846154 21.2396836 -1.58210142 9.42162162 27.2153846 33.1316084"></polygon>
            <polygon id="Shape-Copy-2" fill="#6542F4" mask="url(#mask-4)" points="40.1538462 15.1685972 79.427408 -17.9459459 116 16.4459867 82.7853705 51.5945946"></polygon>
        </g>
    </g>
</svg>