
<svg width="250px" height="125px" viewBox="0 0 250 125" version="1.1" xmlns="http://www.w3.org/2000/svg" xmlns:xlink="http://www.w3.org/1999/xlink">
    <!-- Generator: Sketch 61 (89581) - https://sketch.com -->
    <title>img_purple_shape</title>
    <desc>Created with Sketch.</desc>
    <defs>
        <path d="M125,125 C193.345238,125 248.879405,70.1492854 249.983254,2.06710356 L250,0 L0,0 L0.0167464287,2.06710356 C1.12059524,70.1492854 56.6547622,125 125,125 Z" id="ips-path-1"></path>
    </defs>
    <g id="ips-Homepage" stroke="none" stroke-width="1" fill="none" fill-rule="evenodd">
        <g transform="translate(-627.000000, -1255.000000)" id="ips-Works">
            <g transform="translate(0.000000, 900.000000)">
                <g id="ips-img_purple_shape" transform="translate(627.000000, 355.000000)">
                    <mask id="ips-mask-2" fill="white">
                        <use xlink:href="#ips-path-1"></use>
                    </mask>
                    <use id="ips-Path" fill="#A97AF9" xlink:href="#ips-path-1"></use>
                    <path d="M286.390836,58.3215174 L290.703746,66.7860794 L47.5353369,190.686572 L43.2224271,182.22201 L286.390836,58.3215174 Z M276.857036,39.6103804 L281.169945,48.0749424 L38.0015364,171.975435 L33.6886266,163.510873 L276.857036,39.6103804 Z M267.777226,21.7902499 L272.090135,30.2548119 L28.9217264,154.155305 L24.6088166,145.690743 L267.777226,21.7902499 Z M257.789435,2.18810637 L262.102344,10.6526684 L18.9347372,134.552753 L14.6218274,126.088191 L257.789435,2.18810637 Z M248.255634,-16.5230306 L252.568544,-8.05846865 L9.40044789,115.841865 L5.08753814,107.377303 L248.255634,-16.5230306 Z M239.175824,-34.3431611 L243.488734,-25.8785991 L0.320324892,98.0218938 L-3.99258486,89.5573318 L239.175824,-34.3431611 Z M229.642024,-53.0542981 L233.954933,-44.5897361 L-9.2134756,79.3107568 L-13.5263854,70.8461948 L229.642024,-53.0542981 Z M220.108223,-71.7654351 L224.421133,-63.3008732 L-18.7472761,60.5996198 L-23.0601858,52.1350578 L220.108223,-71.7654351 Z M210.574423,-90.4765721 L214.887332,-82.0120102 L-28.2807636,41.8883233 L-32.5936733,33.4237613 L210.574423,-90.4765721 Z" id="ips-Shape" fill="#7E50CC" fill-rule="nonzero" mask="url(#ips-mask-2)"></path>
                </g>
            </g>
        </g>
    </g>
</svg>