<svg xmlns="http://www.w3.org/2000/svg" xmlns:xlink="http://www.w3.org/1999/xlink" width="26" height="26" viewBox="0 0 26 26">
    <defs>
        <path id="a" d="M0 13C0 5.82 5.82 0 13 0s13 5.82 13 13-5.82 13-13 13S0 20.18 0 13z"/>
    </defs>
    <g fill="none" fill-rule="evenodd">
        <mask id="b" fill="#fff">
            <use xlink:href="#a"/>
        </mask>
        <use fill="#FFF" xlink:href="#a"/>
        <path fill="#000" d="M13 6.067c-1.882 0-2.119.008-2.858.042-.738.033-1.242.15-1.683.322a3.395 3.395 0 0 0-1.228.8 3.404 3.404 0 0 0-.8 1.227c-.172.441-.29.945-.323 1.683-.033.74-.041.976-.041 2.86 0 1.882.008 2.118.042 2.857.034.738.15 1.242.322 1.683.177.456.414.843.8 1.228.385.386.771.623 1.227.8.441.172.945.289 1.683.323.74.033.976.041 2.859.041s2.119-.008 2.858-.041c.738-.034 1.243-.151 1.684-.323a3.392 3.392 0 0 0 1.227-.8c.386-.385.623-.772.8-1.228.17-.44.288-.945.322-1.683.034-.74.042-.975.042-2.858s-.008-2.12-.042-2.859c-.034-.738-.151-1.242-.322-1.683a3.403 3.403 0 0 0-.8-1.228 3.389 3.389 0 0 0-1.228-.8c-.442-.17-.946-.288-1.684-.321-.74-.034-.975-.042-2.859-.042h.003zm-.621 1.25H13c1.85 0 2.07.006 2.801.039.676.03 1.043.144 1.288.239.323.125.554.276.796.518.243.243.393.474.52.798.094.244.207.61.238 1.287.033.73.04.95.04 2.8 0 1.85-.007 2.07-.04 2.801-.03.676-.144 1.043-.239 1.287a2.144 2.144 0 0 1-.519.797 2.144 2.144 0 0 1-.796.518c-.244.096-.612.208-1.288.24-.73.032-.95.04-2.801.04-1.852 0-2.071-.008-2.802-.04-.676-.032-1.043-.145-1.287-.24a2.148 2.148 0 0 1-.798-.518 2.149 2.149 0 0 1-.519-.797c-.095-.244-.208-.611-.238-1.287-.034-.731-.04-.95-.04-2.802s.006-2.07.04-2.801c.03-.676.143-1.043.238-1.287.126-.324.277-.555.52-.798.242-.242.473-.393.797-.519.244-.095.611-.208 1.287-.239.64-.028.887-.037 2.18-.039v.002zm4.323 1.15a.832.832 0 1 0 0 1.665.832.832 0 0 0 0-1.665zM13 9.44a3.56 3.56 0 1 0 0 7.122 3.56 3.56 0 0 0 0-7.122zm0 1.25a2.311 2.311 0 1 1 0 4.622 2.311 2.311 0 0 1 0-4.622z" mask="url(#b)"/>
    </g>
</svg>
