<svg xmlns="http://www.w3.org/2000/svg" width="202" height="36" viewBox="0 0 202 36">
    <g fill="#353BCA" fill-rule="nonzero">
        <path d="M46.792 13.69c0 3.52 2.464 5.192 4.862 5.192 2.42 0 4.884-1.672 4.884-5.192 0-3.52-2.464-5.192-4.884-5.192-2.398 0-4.862 1.672-4.862 5.192zm-3.146.022c0-5.038 3.784-8.14 8.008-8.14 4.246 0 8.03 3.102 8.03 8.14 0 5.016-3.784 8.118-8.03 8.118-4.224 0-8.008-3.102-8.008-8.118zM65.03 21.5h-2.926V10.676h2.794v1.32c.594-1.056 1.98-1.628 3.168-1.628 1.474 0 2.662.638 3.212 1.804.858-1.32 2.002-1.804 3.432-1.804 2.002 0 3.916 1.21 3.916 4.114V21.5h-2.838v-6.424c0-1.166-.572-2.046-1.914-2.046-1.254 0-2.002.968-2.002 2.134V21.5h-2.904v-6.424c0-1.166-.594-2.046-1.914-2.046-1.276 0-2.024.946-2.024 2.134V21.5zm19.492-6.226V21.5h-2.926V10.676h2.838v1.342c.66-1.122 1.958-1.628 3.124-1.628 2.684 0 3.916 1.914 3.916 4.29v6.82h-2.926v-6.314c0-1.21-.594-2.156-2.002-2.156-1.276 0-2.024.99-2.024 2.244zM97.37 21.5h-2.926V10.676h2.926V21.5zM94.092 7.134c0-1.012.814-1.826 1.804-1.826 1.012 0 1.804.814 1.804 1.826 0 .968-.792 1.782-1.804 1.782-.99 0-1.804-.814-1.804-1.782zm11.264 5.918c-1.496 0-2.75 1.078-2.75 3.036s1.276 3.058 2.772 3.058c1.496 0 2.244-.99 2.486-1.826l2.574.858c-.484 1.804-2.178 3.652-5.06 3.652-3.19 0-5.698-2.42-5.698-5.742 0-3.344 2.464-5.742 5.61-5.742 2.948 0 4.62 1.826 5.082 3.652l-2.618.88c-.264-.902-.946-1.826-2.398-1.826zm13.838-2.42v2.948a4.406 4.406 0 0 0-.88-.088c-1.496 0-2.794.726-2.794 3.058v4.95h-2.926V10.676h2.838v1.606c.66-1.43 2.156-1.694 3.08-1.694.242 0 .462.022.682.044zm4.136 4.224h4.84c-.044-1.078-.748-2.134-2.42-2.134-1.518 0-2.354 1.144-2.42 2.134zm5.126 2.816l2.442.726c-.55 1.87-2.266 3.432-4.928 3.432-2.97 0-5.588-2.134-5.588-5.786 0-3.454 2.552-5.698 5.324-5.698 3.344 0 5.346 2.134 5.346 5.61 0 .418-.044.858-.044.902h-7.744c.066 1.43 1.276 2.464 2.728 2.464 1.364 0 2.112-.682 2.464-1.65zm4.246.88c0-1.936 1.43-3.014 3.234-3.278l2.662-.396c.616-.088.814-.396.814-.77 0-.77-.594-1.408-1.826-1.408-1.276 0-1.98.814-2.068 1.76l-2.596-.55c.176-1.694 1.738-3.564 4.642-3.564 3.432 0 4.708 1.936 4.708 4.114v5.324c0 .572.066 1.342.132 1.716h-2.684c-.066-.286-.11-.88-.11-1.298-.55.858-1.584 1.606-3.19 1.606-2.31 0-3.718-1.562-3.718-3.256zm4.334 1.078c1.232 0 2.376-.594 2.376-2.508v-.484l-2.442.374c-.748.11-1.342.528-1.342 1.364 0 .638.462 1.254 1.408 1.254zm11.792-12.188v3.234h2.178v2.596h-2.178v4.532c0 .946.44 1.254 1.276 1.254.352 0 .748-.044.902-.088v2.42c-.264.11-.792.264-1.65.264-2.112 0-3.432-1.254-3.432-3.344v-5.038h-1.958v-2.596h.55c1.144 0 1.672-.748 1.672-1.716V7.442h2.64zm7.524 14.058h-2.926V10.676h2.926V21.5zm-3.278-14.366c0-1.012.814-1.826 1.804-1.826 1.012 0 1.804.814 1.804 1.826 0 .968-.792 1.782-1.804 1.782-.99 0-1.804-.814-1.804-1.782zm16.61 3.542L165.482 21.5h-2.926l-4.422-10.824h3.212l2.684 7.26 2.574-7.26h3.08zm6.644 8.492c1.43 0 2.75-1.034 2.75-3.08 0-2.046-1.32-3.08-2.75-3.08s-2.75 1.034-2.75 3.08c0 2.024 1.32 3.08 2.75 3.08zm0-8.822c3.234 0 5.676 2.398 5.676 5.742 0 3.322-2.442 5.742-5.676 5.742s-5.676-2.42-5.676-5.742c0-3.344 2.442-5.742 5.676-5.742zm14.586.286v2.948a4.406 4.406 0 0 0-.88-.088c-1.496 0-2.794.726-2.794 3.058v4.95h-2.926V10.676h2.838v1.606c.66-1.43 2.156-1.694 3.08-1.694.242 0 .462.022.682.044zm1.342 7.92c0-1.936 1.43-3.014 3.234-3.278l2.662-.396c.616-.088.814-.396.814-.77 0-.77-.594-1.408-1.826-1.408-1.276 0-1.98.814-2.068 1.76l-2.596-.55c.176-1.694 1.738-3.564 4.642-3.564 3.432 0 4.708 1.936 4.708 4.114v5.324c0 .572.066 1.342.132 1.716h-2.684c-.066-.286-.11-.88-.11-1.298-.55.858-1.584 1.606-3.19 1.606-2.31 0-3.718-1.562-3.718-3.256zm4.334 1.078c1.232 0 2.376-.594 2.376-2.508v-.484l-2.442.374c-.748.11-1.342.528-1.342 1.364 0 .638.462 1.254 1.408 1.254zM13.024 28.471c2.38 0 4.308 1.686 4.308 3.765S15.403 36 13.024 36c-2.378 0-4.307-1.685-4.307-3.764 0-2.08 1.929-3.765 4.307-3.765zM7.533.448c1.471-.874 3.397-.43 4.302.992.904 1.422.444 3.283-1.028 4.156-.808.48-1.937 1.811-2.853 3.519-1.024 1.911-1.647 4.01-1.696 5.82-.049 1.799.451 3.146 1.49 4.047 1.35 1.171 3.78 1.82 7.497 1.665 3.717-.156 6.216-1.078 7.662-2.517 1.158-1.15 1.69-2.717 1.589-4.57-.1-1.814-.817-3.742-1.927-5.246-.987-1.338-2.11-2.107-2.946-2.197-1.717-.186-2.952-1.681-2.76-3.34.193-1.658 1.74-2.852 3.457-2.666 5.488.595 10.076 6.815 10.422 13.13.189 3.452-.905 6.67-3.349 9.1-2.658 2.644-6.671 4.126-11.877 4.343-5.223.22-9.237-.853-11.948-3.206C1.048 21.29-.088 18.23.005 14.776.155 9.246 3.631 2.764 7.533.448z"/>
    </g>
</svg>
