<?xml version="1.0" encoding="UTF-8"?>
<svg width="1144px" height="451px" viewBox="0 0 1144 451" version="1.1" xmlns="http://www.w3.org/2000/svg" xmlns:xlink="http://www.w3.org/1999/xlink">
    <!-- Generator: Sketch 61 (89581) - https://sketch.com -->
    <title>img_header_bg</title>
    <desc>Created with Sketch.</desc>
    <defs>
        <polygon id="path-1" points="29.2499992 0 -3.55271368e-15 0 -3.55271368e-15 29.2499992 29.2499992 29.2499992"></polygon>
        <rect id="path-3" x="0" y="0" width="86.3999926" height="86.3999926"></rect>
        <circle id="path-5" cx="86.3999926" cy="86.3999926" r="86.3999926"></circle>
        <path d="M96.6280301,95.3999975 L96.6280301,-7.10542736e-14 C43.7955045,-7.10542736e-14 0.866247288,41.8620643 0.0129453953,93.8223841 L-4.54747351e-13,95.3999975 L96.6280301,95.3999975 L96.6280301,-7.10542736e-14 L96.6280301,95.3999975 Z" id="path-7"></path>
        <rect id="path-9" x="0" y="0" width="47.6999987" height="47.6999987"></rect>
        <polygon id="path-11" points="51.6194331 0.0131996954 103.225666 51.6194331 51.6194331 103.225666 0.0131996954 51.6194331"></polygon>
        <path d="M50.1034229,49.8959986 L50.1034229,-7.10542736e-14 C22.7087801,-7.10542736e-14 0.449165259,21.8946494 0.00671242718,49.070877 L-4.8316906e-13,49.8959986 L50.1034229,49.8959986 L50.1034229,-7.10542736e-14 L50.1034229,49.8959986 Z" id="path-13"></path>
        <rect id="path-15" x="-4.54747351e-13" y="-7.10542736e-14" width="35.7881598" height="35.6399996"></rect>
    </defs>
    <g id="Work" stroke="none" stroke-width="1" fill="none" fill-rule="evenodd">
        <g id="Works" transform="translate(-133.000000, -119.000000)">
            <g id="Hero">
                <g id="img_header_bg" transform="translate(110.000000, 119.000000)">
                    <polygon id="Rectangle-Copy-3" fill="#9EE5FF" transform="translate(281.500000, 301.000000) scale(1, -1) translate(-281.500000, -301.000000) " points="368 283.040369 195 283 195 319 367.603895 319"></polygon>
                    <g id="img_green_right" transform="translate(1146.000000, 205.000000) rotate(-315.000000) translate(-1146.000000, -205.000000) translate(1131.000000, 190.000000)">
                        <mask id="mask-2" fill="white">
                            <use xlink:href="#path-1"></use>
                        </mask>
                        <use id="Path" fill="#3FC57F" xlink:href="#path-1"></use>
                        <path d="M30.3061997,22.4964804 L-0.185801985,22.4964804 M30.3061997,26.4137432 L-0.185801985,26.4137432 M30.3061997,10.744692 L-0.185736437,10.744692 M30.3061997,14.6619548 L-0.185634072,14.6619548 M30.3061997,18.765754 L-0.185801985,18.765754 M30.3061997,7.01396558 L-0.185801985,7.01396558 M30.3061997,-4.7378228 L-0.185736437,-4.7378228 M30.3061997,-6.78972235 L-0.185736437,-6.78972235 M30.3061997,-0.820560004 L-0.185801985,-0.820560004 M30.3061997,3.09670279 L-0.185801985,3.09670279" id="Combined-Shape" stroke="#249C5D" stroke-width="1.79999995" stroke-linecap="square" mask="url(#mask-2)"></path>
                    </g>
                    <g id="img_fourdots" transform="translate(768.500000, 195.500000) scale(-1, 1) translate(-768.500000, -195.500000) translate(725.000000, 152.000000)">
                        <mask id="mask-4" fill="white">
                            <use xlink:href="#path-3"></use>
                        </mask>
                        <g id="Mask"></g>
                        <g id="Group-14" mask="url(#mask-4)">
                            <mask id="mask-6" fill="white">
                                <use xlink:href="#path-5"></use>
                            </mask>
                            <use id="Mask" fill="#FFEDE1" xlink:href="#path-5"></use>
                            <g mask="url(#mask-6)" id="Line-9" stroke="#FFBB8E" stroke-dasharray="0,16.19999903440475" stroke-linecap="round" stroke-linejoin="round" stroke-width="5.39999954">
                                <g transform="translate(46.902853, 33.923584)">
                                    <line x1="0.567831401" y1="0.316097534" x2="20.9828553" y2="0.316097534"></line>
                                    <line x1="0.567831401" y1="18.8303817" x2="20.9828553" y2="18.8303817"></line>
                                    <line x1="0.567831401" y1="37.3446658" x2="20.9828553" y2="37.3446658"></line>
                                    <line x1="0.567831401" y1="55.8589499" x2="20.9828553" y2="55.8589499"></line>
                                    <line x1="0.567831401" y1="74.373234" x2="20.9828553" y2="74.373234"></line>
                                </g>
                            </g>
                        </g>
                    </g>
                    <g id="img_orange_list" transform="translate(677.000000, 355.000000)">
                        <g id="Combined-Shape">
                            <mask id="mask-8" fill="white">
                                <use xlink:href="#path-7"></use>
                            </mask>
                            <use id="Path" fill="#FFBB8E" xlink:href="#path-7"></use>
                            <path d="M103.009256,80.8422057 L0.532687685,80.8422057 M103.009256,93.8512962 L0.532687685,93.8512962 M103.009256,41.814934 L0.532907977,41.814934 M103.009256,54.8240245 L0.533252002,54.8240245 M103.009256,68.4525956 L0.532687685,68.4525956 M103.009256,29.4253239 L0.532687685,29.4253239 M103.009256,-9.6019478 L0.532907977,-9.6019478 M103.009256,-16.4162333 L0.532907977,-16.4162333 M103.009256,-3.40714277 L0.533252002,-3.40714277 M103.009256,3.40714277 L0.532687685,3.40714277 M103.009256,16.4162333 L0.532687685,16.4162333" stroke="#FFDEAF" stroke-width="6.75682622" stroke-linecap="square" mask="url(#mask-8)"></path>
                        </g>
                    </g>
                    <g id="img_blue_top" transform="translate(926.299974, 50.199998)">
                        <mask id="mask-10" fill="white">
                            <use xlink:href="#path-9"></use>
                        </mask>
                        <use id="Mask" fill="#2BB7F4" xlink:href="#path-9"></use>
                        <g id="Group-11" mask="url(#mask-10)" stroke-linecap="square">
                            <g transform="translate(45.244687, 26.538640) rotate(-45.000000) translate(-45.244687, -26.538640) translate(-14.755313, -15.461360)" id="Group-8">
                                <g transform="translate(0.263240, 0.108591)">
                                    <path d="M103.179259,41.2705834 L0.702138822,41.2705834 M107.41385,51.4920117 L0.702138822,51.4920117 M118.847248,61.71344 L0.702138822,61.71344 M118.847248,71.9348683 L0.702138822,71.9348683 M118.847248,82.1562966 L0.702138822,82.1562966 M103.179259,10.6062985 L0.702138822,10.6062985 M103.179259,0.384870153 L0.702138822,0.384870153 M107.41385,20.8277268 L0.702138822,20.8277268 M118.847248,31.0491551 L0.702138822,31.0491551" id="Combined-Shape" stroke="#2A9DCF" stroke-width="3.59999996"></path>
                                </g>
                            </g>
                        </g>
                    </g>
                    <g id="img_purple_vertical" transform="translate(952.500000, 306.000000) rotate(-90.000000) translate(-952.500000, -306.000000) translate(887.000000, 280.000000)">
                        <rect id="Mask-Copy" fill="#5352FF" x="-2.27373675e-13" y="0" width="130.499997" height="51.8399994"></rect>
                        <g id="Group-21" transform="translate(9.900000, 11.520000)" stroke="#CDCDF8" stroke-dasharray="0,21.59999942779541" stroke-linecap="round" stroke-linejoin="round" stroke-width="5.39999986">
                            <line x1="0.195656836" y1="28.4487802" x2="111.853186" y2="28.4487802" id="Line-9-Copy"></line>
                            <line x1="0.195656836" y1="14.7687803" x2="111.853186" y2="14.7687803" id="Line-9-Copy-2"></line>
                            <line x1="0.195656836" y1="0.368780484" x2="111.853186" y2="0.368780484" id="Line-9-Copy-3"></line>
                        </g>
                    </g>
                    <polygon id="img_Rectangle" fill="#FFE1E2" transform="translate(75.081773, 379.298793) scale(1, -1) rotate(-120.000000) translate(-75.081773, -379.298793) " points="121.163546 397.549382 91.078376 380.179701 113.030081 342.158232 74.6508971 320 29 399.069673 97.464354 438.597586"></polygon>
                    <g id="Lines-dot" transform="translate(526.000000, 83.000000)" stroke="#CDCDF8" stroke-dasharray="0,21.59999942779541" stroke-linecap="round" stroke-linejoin="round" stroke-width="4.31999995">
                        <line x1="-3.83693077e-13" y1="29.1599997" x2="111.657529" y2="29.1599997" id="Line-9-Copy"></line>
                        <line x1="-3.83693077e-13" y1="0.359999996" x2="111.657529" y2="0.359999996" id="Line-9-Copy-3"></line>
                        <line x1="-3.83693077e-13" y1="14.7599998" x2="111.657529" y2="14.7599998" id="Line-9-Copy-4"></line>
                    </g>
                    <g id="img_hand_sign" transform="translate(74.000000, 48.000000)">
                        <mask id="mask-12" fill="white">
                            <use xlink:href="#path-11"></use>
                        </mask>
                        <use id="Mask" fill="#353BCA" xlink:href="#path-11"></use>
                        <polygon id="Shape-Copy-10" fill="#57D2FF" mask="url(#mask-12)" points="21.0913012 20.48396 47.9799495 -3.03670567 74.813385 19.2140649 52.2865503 40.7470688"></polygon>
                        <polygon id="Shape-Copy-2" fill="#13154F" mask="url(#mask-12)" points="-9.71745813 47.4830341 27.8272665 21.146514 73.5987028 21.146514 16.2877849 74.3716824"></polygon>
                        <polygon id="Shape-Copy-9" fill="#13154F" mask="url(#mask-12)" points="51.8448476 51.734422 103.247993 51.734422 51.8448476 107.609806"></polygon>
                        <path d="M73.4919787,51.221978 L79.7852405,51.221978 L79.7852405,79.7863941 C79.7852405,86.2894314 77.3728235,88.8416987 71.3942247,88.8416987 L51.7452628,88.8416987 L27.7720536,63.0530522 L48.6425035,64.433373 C48.1344836,64.5177306 47.5832555,60.1191085 46.9888193,51.2375065 L51.7452628,51.221978 L51.7452628,-7.60342391 C51.7452628,-9.74675531 53.4827762,-11.4842687 55.6261076,-11.4842687 C57.769439,-11.4842687 57.8505675,-9.74675531 57.8505675,-7.60342391 L57.8505675,51.221978 L63.003209,51.221978 L63.003209,-5.04480016 C63.003209,-6.97572934 64.5685364,-8.54105672 66.4994655,-8.54105672 C68.4303947,-8.54105672 68.8914655,-6.97572934 68.8914655,-5.04480016 L68.8914655,51.221978 L73.4919787,51.221978 L73.4919787,0.968761135 C73.4919787,-0.769075129 74.9007733,-2.17786977 76.6386096,-2.17786977 C78.3764458,-2.17786977 79.7852405,-0.769075129 79.7852405,0.968761135 L79.7852405,65.4517422 C79.7852405,67.1895785 78.3764458,68.5983731 76.6386096,68.5983731 C74.9007733,68.5983731 73.4919787,67.1895785 73.4919787,65.4517422 L73.4919787,51.221978 Z" id="Combined-Shape" fill="#3FC57F" fill-rule="nonzero" mask="url(#mask-12)"></path>
                        <path d="M26.7230099,53.666871 C26.7230099,59.9484711 31.8152528,65.0407141 38.0968529,65.0407141 L38.0968529,65.0407141 C44.378453,65.0407141 49.4706959,59.9484711 49.4706959,53.666871 C49.4706959,47.385271 44.378453,42.293028 38.0968529,42.293028 C33.5174624,42.293028 29.5701737,44.9993778 27.7671479,48.8999162" id="Oval-2-Copy" stroke="#6542F4" stroke-width="6.96729466" mask="url(#mask-12)"></path>
                    </g>
                    <g id="img_green_top" transform="translate(376.000000, 0.000000)">
                        <g id="Combined-Shape">
                            <mask id="mask-14" fill="white">
                                <use xlink:href="#path-13"></use>
                            </mask>
                            <use id="Path" fill="#46CB8B" xlink:href="#path-13"></use>
                            <path d="M53.4122069,42.2819988 L0.276208429,42.2819988 M53.4122069,49.0859986 L0.276208429,49.0859986 M53.4122069,21.8699994 L0.276322654,21.8699994 M53.4122069,28.6739992 L0.276501037,28.6739992 M53.4122069,35.801999 L0.276208429,35.801999 M53.4122069,15.3899996 L0.276208429,15.3899996 M53.4122069,-5.02199986 L0.276322654,-5.02199986 M53.4122069,-8.58599975 L0.276322654,-8.58599975 M53.4122069,-1.78199995 L0.276501037,-1.78199995 M53.4122069,1.78199995 L0.276208429,1.78199995 M53.4122069,8.58599975 L0.276208429,8.58599975" stroke="#299E65" stroke-width="3.5279999" stroke-linecap="square" mask="url(#mask-14)"></path>
                        </g>
                    </g>
                    <g id="Group-20-Copy-2" transform="translate(559.000000, 360.000000)">
                        <mask id="mask-16" fill="white">
                            <use xlink:href="#path-15"></use>
                        </mask>
                        <use id="Mask" fill="#9075FF" transform="translate(17.894080, 17.820000) scale(-1, 1) translate(-17.894080, -17.820000) " xlink:href="#path-15"></use>
                        <path d="M38.151577,30.2014282 L0.197291738,30.2014282 M38.151577,35.0614282 L0.197291738,35.0614282 M38.151577,15.6214284 L0.197373328,15.6214284 M38.151577,20.4814283 L0.197500744,20.4814283 M38.151577,25.5728568 L0.197291738,25.5728568 M38.151577,10.992857 L0.197291738,10.992857 M38.151577,-3.58714282 L0.197373328,-3.58714282 M38.151577,-6.13285707 L0.197373328,-6.13285707 M38.151577,-1.27285713 L0.197500744,-1.27285713 M38.151577,1.27285713 L0.197291738,1.27285713 M38.151577,6.13285707 L0.197291738,6.13285707" id="Combined-Shape" stroke="#6145D7" stroke-width="2.51999997" stroke-linecap="square" mask="url(#mask-16)"></path>
                    </g>
                </g>
            </g>
        </g>
    </g>
</svg>