<svg width="214" height="19" viewBox="0 0 214 19" fill="none" xmlns="http://www.w3.org/2000/svg">
<path id="path-arrow-long" d="M214 9.5L199 0.839746V18.1603L214 9.5ZM0 11H2.40868V8H0V11ZM7.22603 11H12.0434V8H7.22603V11ZM16.8607 11H21.6781V8H16.8607V11ZM26.4955 11H31.3128V8H26.4955V11ZM36.1302 11H40.9475V8H36.1302V11ZM45.7649 11H50.5822V8H45.7649V11ZM55.3996 11H60.217V8H55.3996V11ZM65.0343 11H67.443V8H65.0343V11ZM67.443 11H69.8856V8H67.443V11ZM74.7708 11H79.6561V8H74.7708V11ZM84.5413 11H89.4265V8H84.5413V11ZM94.3118 11H99.197V8H94.3118V11ZM104.082 11H108.967V8H104.082V11ZM113.853 11H118.738V8H113.853V11ZM123.623 11H128.508V8H123.623V11ZM133.394 11H138.279V8H133.394V11ZM143.164 11H148.049V8H143.164V11ZM152.935 11H157.82V8H152.935V11ZM162.705 11H167.59V8H162.705V11ZM172.475 11H177.361V8H172.475V11ZM182.246 11H187.131V8H182.246V11ZM192.016 11H196.902V8H192.016V11ZM201.787 11H206.672V8H201.787V11Z" fill="#7B9DC6"/>
</svg>
