<svg width="84" height="19" viewBox="0 0 84 19" fill="none" xmlns="http://www.w3.org/2000/svg">
<path id="path-arrow-short" d="M84 9.5L69 0.839746V18.1603L84 9.5ZM0 11H2.40868V8H0V11ZM7.22603 11H12.0434V8H7.22603V11ZM16.8607 11H21.6781V8H16.8607V11ZM26.4955 11H31.3128V8H26.4955V11ZM36.1302 11H40.9475V8H36.1302V11ZM45.7649 11H50.5822V8H45.7649V11ZM55.3996 11H60.217V8H55.3996V11ZM65.0343 11H67.443V8H65.0343V11ZM67.443 11H69.5126V8H67.443V11ZM73.6519 11H77.7911V8H73.6519V11Z" fill="#7B9DC6"/>
</svg>
