<svg width="178" height="66" viewBox="0 0 178 66" fill="none" xmlns="http://www.w3.org/2000/svg">
<path id="path-arrow-round" d="M0.521472 1.25289C0.661456 2.0713 0.817176 2.88543 0.988364 3.69506L3.92347 3.07445C3.76032 2.30282 3.61192 1.52697 3.47853 0.747108L0.521472 1.25289ZM2.20311 8.51105C2.67002 10.1011 3.19726 11.671 3.78262 13.2188L6.58866 12.1576C6.02988 10.68 5.52685 9.18222 5.08157 7.66581L2.20311 8.51105ZM5.71004 17.7926C6.40689 19.2892 7.1592 20.7621 7.96477 22.2094L10.5861 20.7504C9.81515 19.3653 9.09569 17.9567 8.42969 16.5263L5.71004 17.7926ZM10.5267 26.4542C11.4255 27.8327 12.3741 29.1846 13.3706 30.5081L15.7673 28.7037C14.8109 27.4334 13.9011 26.1369 13.0397 24.8157L10.5267 26.4542ZM16.4761 34.3631C17.5473 35.608 18.6626 36.8238 19.8202 38.0091L21.9664 35.913C20.8524 34.7723 19.7796 33.6028 18.75 32.4064L16.4761 34.3631ZM23.3796 41.4374C24.5946 42.5387 25.8482 43.6091 27.1387 44.6471L29.019 42.3095C27.774 41.308 26.5652 40.2759 25.3944 39.2146L23.3796 41.4374ZM31.0723 47.6295C32.404 48.5809 33.7692 49.4999 35.1662 50.3851L36.772 47.8511C35.4215 46.9953 34.1023 46.1073 32.8162 45.1884L31.0723 47.6295ZM39.406 52.9131C40.832 53.7122 42.2868 54.4776 43.7687 55.2082L45.0952 52.5174C43.6603 51.81 42.2522 51.0691 40.8724 50.296L39.406 52.9131ZM48.2445 57.2724C49.746 57.9186 51.272 58.5301 52.821 59.1058L53.866 56.2937C52.3643 55.7356 50.8853 55.1429 49.4305 54.5167L48.2445 57.2724ZM57.4816 60.7069C59.038 61.1987 60.6149 61.6552 62.2109 62.0752L62.9743 59.1739C61.4253 58.7664 59.8954 58.3235 58.3857 57.8463L57.4816 60.7069ZM67.0021 63.2129C68.5992 63.5518 70.2134 63.8547 71.8432 64.1204L72.326 61.1595C70.743 60.9014 69.1755 60.6073 67.6249 60.2782L67.0021 63.2129ZM76.7215 64.7985C78.341 64.9851 79.9741 65.1353 81.6198 65.2481L81.825 62.2551C80.2255 62.1455 78.6384 61.9995 77.0649 61.8182L76.7215 64.7985ZM86.5343 65.472C87.3535 65.4906 88.1755 65.5 89 65.5V62.5C88.1982 62.5 87.399 62.4909 86.6025 62.4728L86.5343 65.472ZM89 65.5C89.8245 65.5 90.6465 65.4906 91.4657 65.472L91.3976 62.4728C90.601 62.4909 89.8018 62.5 89 62.5V65.5ZM96.3802 65.2481C98.0259 65.1353 99.6591 64.9851 101.279 64.7985L100.935 61.8182C99.3617 61.9995 97.7746 62.1455 96.175 62.2551L96.3802 65.2481ZM106.157 64.1204C107.787 63.8547 109.401 63.5518 110.998 63.2129L110.375 60.2782C108.824 60.6073 107.257 60.9014 105.674 61.1595L106.157 64.1204ZM115.789 62.0752C117.385 61.6552 118.962 61.1987 120.518 60.7068L119.614 57.8463C118.105 58.3235 116.575 58.7664 115.026 59.1739L115.789 62.0752ZM125.179 59.1058C126.728 58.5301 128.254 57.9186 129.756 57.2724L128.57 54.5167C127.115 55.1428 125.636 55.7356 124.134 56.2937L125.179 59.1058ZM134.231 55.2082C135.713 54.4776 137.168 53.7122 138.594 52.9131L137.128 50.296C135.748 51.0691 134.34 51.81 132.905 52.5174L134.231 55.2082ZM142.834 50.3851C144.231 49.4999 145.596 48.5809 146.928 47.6295L145.184 45.1884C143.898 46.1073 142.578 46.9953 141.228 47.8511L142.834 50.3851ZM150.861 44.6471C152.152 43.6091 153.405 42.5387 154.62 41.4374L152.606 39.2146C151.435 40.2759 150.226 41.308 148.981 42.3095L150.861 44.6471ZM158.18 38.0091C159.337 36.8238 160.453 35.608 161.524 34.3631L159.25 32.4063C158.22 33.6028 157.148 34.7722 156.034 35.913L158.18 38.0091ZM164.629 30.5081C165.626 29.1846 166.575 27.8327 167.473 26.4542L164.96 24.8157C164.099 26.1368 163.189 27.4334 162.233 28.7037L164.629 30.5081ZM170.035 22.2094C170.841 20.7621 171.593 19.2892 172.29 17.7926L169.57 16.5263C168.904 17.9567 168.185 19.3653 167.414 20.7504L170.035 22.2094ZM174.217 13.2187C174.803 11.6709 175.33 10.1011 175.797 8.51102L172.918 7.66578C172.473 9.18219 171.97 10.68 171.411 12.1575L174.217 13.2187ZM177.012 3.69503C177.183 2.88541 177.339 2.07129 177.479 1.25289L174.521 0.747108C174.388 1.52696 174.24 2.3028 174.077 3.07442L177.012 3.69503Z" fill="#7B9DC6"/>
</svg>
